<svg xmlns="http://www.w3.org/2000/svg" width="58" height="38" viewBox="0 0 58 38"><g><g><path d="M58 5.937v26.125C58 35.336 55.288 38 51.958 38H6.042C2.712 38 0 35.335 0 32.063V5.937C0 2.665 2.711 0 6.042 0h45.916C55.288 0 58 2.665 58 5.937zm-2.417 26.125V16.625H2.417v15.437c0 1.965 1.626 3.563 3.625 3.563h45.916c1.999 0 3.625-1.598 3.625-3.563zm0-26.125c0-1.964-1.626-3.562-3.625-3.562H6.042c-1.999 0-3.625 1.598-3.625 3.562v1.188h53.166zm0 8.313V9.5H2.417v4.75zM24.167 24.937c0 .656-.542 1.188-1.209 1.188h-14.5a1.198 1.198 0 0 1-1.208-1.187c0-.656.541-1.188 1.208-1.188h14.5c.667 0 1.209.532 1.209 1.187zm0 4.75c0 .656-.542 1.188-1.209 1.188h-14.5a1.199 1.199 0 0 1-1.208-1.187c0-.656.541-1.188 1.208-1.188h14.5c.667 0 1.209.532 1.209 1.188zm26.583-4.75v2.375c0 1.965-1.626 3.563-3.625 3.563h-2.417c-1.998 0-3.625-1.598-3.625-3.563v-2.375c0-1.964 1.627-3.562 3.625-3.562h2.417c1.999 0 3.625 1.598 3.625 3.562zm-2.417 0c0-.655-.541-1.187-1.208-1.187h-2.417c-.667 0-1.208.532-1.208 1.188v2.375c0 .655.541 1.187 1.208 1.187h2.417c.667 0 1.208-.532 1.208-1.187z"/></g></g></svg>