<svg xmlns="http://www.w3.org/2000/svg" width="54" height="40" viewBox="0 0 54 40"><g><g><path d="M54 23.333v13.334C54 38.504 52.486 40 50.625 40h-33.72a3.566 3.566 0 0 1-.047 0H3.375C1.515 40 0 38.504 0 36.667V23.333c0-5.513 4.543-10 10.125-10H27V1.111C27 .498 27.504 0 28.125 0h11.25c.621 0 1.125.498 1.125 1.111v6.667c0 .613-.504 1.11-1.125 1.11H29.25v4.445h14.625c5.582 0 10.125 4.487 10.125 10zm-2.25 0c0-4.289-3.533-7.778-7.875-7.778H29.25v7.778c0 .614-.504 1.111-1.125 1.111A1.119 1.119 0 0 1 27 23.334v-7.779H16.482c2.297 1.835 3.768 4.64 3.768 7.778v13.334c0 .39-.068.763-.193 1.11h30.568c.621 0 1.125-.5 1.125-1.11zm-49.5 0v13.334a1.12 1.12 0 0 0 1.125 1.11h13.5c.621 0 1.125-.5 1.125-1.11V23.333c0-4.289-3.533-7.778-7.875-7.778-4.343 0-7.875 3.49-7.875 7.778zm36-21.11h-9v4.444h9z"/></g></g></svg>