<svg xmlns="http://www.w3.org/2000/svg" width="54" height="50" viewBox="0 0 54 50"><g><g><path d="M27.393 45.248c0 2.62-2.13 4.752-4.75 4.752a4.756 4.756 0 0 1-4.748-4.752c0-2.62 2.13-4.752 4.749-4.752a4.756 4.756 0 0 1 4.75 4.752zm-2.652 0a2.1 2.1 0 0 0-2.097-2.099 2.1 2.1 0 0 0-2.098 2.1 2.1 2.1 0 0 0 2.098 2.098 2.1 2.1 0 0 0 2.097-2.099zm19.311 0c0 2.62-2.13 4.752-4.75 4.752a4.756 4.756 0 0 1-4.749-4.752c0-2.62 2.13-4.752 4.75-4.752a4.756 4.756 0 0 1 4.749 4.752zm-2.652 0a2.1 2.1 0 0 0-2.097-2.099 2.1 2.1 0 0 0-2.098 2.1 2.1 2.1 0 0 0 2.098 2.098 2.1 2.1 0 0 0 2.097-2.099zm.398-28.443c0 .733-.594 1.327-1.326 1.327h-19a1.326 1.326 0 0 1 0-2.654h19c.732 0 1.326.594 1.326 1.327zm-1.034 6.889c0 .732-.594 1.327-1.326 1.327H22.505a1.326 1.326 0 0 1 0-2.654h16.933c.732 0 1.326.594 1.326 1.327zm13.183-11.915L50.238 29.79a2.662 2.662 0 0 1-2.597 2.118h-32.79l.78 3.79h31.765a1.326 1.326 0 0 1 0 2.653H15.63a2.662 2.662 0 0 1-2.597-2.118L6.618 5.075.798 2.547A1.327 1.327 0 0 1 1.856.114l5.82 2.527a2.656 2.656 0 0 1 1.54 1.898l.835 4.052h41.3c.8 0 1.55.356 2.056.977.505.62.703 1.427.541 2.21zm-2.597-.535H10.596l3.709 18.01H47.64z"/></g></g></svg>